<svg width="157" height="663" viewBox="0 0 157 663" fill="none" xmlns="http://www.w3.org/2000/svg">
<g id="Frame" clip-path="url(#clip0_2_60)">
<g id="oranje">
<path id="Path 296" d="M80.83 358.826L57.4 399.406C71.6426 407.645 87.8059 411.984 104.26 411.984C120.714 411.984 136.877 407.645 151.12 399.406L127.66 358.816C120.535 362.93 112.453 365.097 104.225 365.097C95.9974 365.097 87.9148 362.93 80.79 358.816" fill="#FF9400"/>
<g id="verbindingstukje 2">
<path id="Line 1" d="M104.3 186L104 242" stroke="#ABAFBA" stroke-width="5"/>
</g>
</g>
<g id="groen">
<path id="Path 297" d="M80.83 277.636L57.41 237.096C43.1705 245.331 31.3447 257.163 23.1171 271.407C14.8895 285.651 10.5489 301.806 10.53 318.256H57.4C57.3966 310.027 59.5613 301.943 63.6763 294.817C67.7913 287.691 73.7113 281.776 80.84 277.666" fill="#54BA54"/>
</g>
<g id="geel">
<path id="Path 298" d="M63.66 341.666C59.5391 334.542 57.3727 326.456 57.38 318.226H10.53C10.5191 334.683 14.8458 350.852 23.0743 365.104C31.3028 379.356 43.1424 391.187 57.4 399.406L80.83 358.826C73.6929 354.721 67.7691 348.8 63.66 341.666" fill="#E7EF37"/>
</g>
<g id="blauw">
<path id="Path 299" d="M92.66 225.196C80.2297 226.753 68.2409 230.801 57.41 237.096V237.096L80.84 277.666C87.9638 273.548 96.0468 271.38 104.275 271.38C112.503 271.38 120.586 273.548 127.71 277.666L151.14 237.096C133.451 226.898 112.928 222.722 92.66 225.196" fill="#3F51B5"/>
</g>
<g id="oranje outline">
<path id="Path 300" d="M115.86 411.256C95.6041 413.745 75.0876 409.587 57.4 399.406L52.13 408.526C67.9797 417.681 85.961 422.501 104.265 422.501C122.569 422.501 140.55 417.681 156.4 408.526L151.13 399.396C140.292 405.686 128.296 409.723 115.86 411.266" fill="#F08A2A"/>
</g>
<g id="groene outline">
<path id="Path 301" d="M13.74 293.966C16.914 282.077 22.406 270.933 29.9003 261.173C37.3946 251.414 46.7436 243.231 57.41 237.096L52.14 227.966C36.2848 237.11 23.1181 250.27 13.9649 266.12C4.81181 281.971 -0.00475126 299.952 3.51692e-06 318.256H10.53C10.5404 310.064 11.6195 301.908 13.74 293.996" fill="#62CC62"/>
</g>
<g id="gele outline">
<path id="Path 302" d="M47.72 392.996C36.1578 384.261 26.7809 372.961 20.3275 359.987C13.8741 347.012 10.5202 332.717 10.53 318.226H0C0.00969708 336.526 4.83118 354.503 13.9809 370.352C23.1306 386.201 36.2868 399.366 52.13 408.526L57.4 399.406C54.0433 397.472 50.8103 395.331 47.72 392.996" fill="#EDF465"/>
</g>
<g id="blauwe outline">
<path id="Path 303" d="M57.41 237.096C71.6634 228.883 87.8248 224.56 104.275 224.56C120.725 224.56 136.887 228.883 151.14 237.096L156.41 227.976C140.56 218.82 122.579 214 104.275 214C85.971 214 67.9897 218.82 52.14 227.976L57.41 237.106" fill="#5667C3"/>
</g>
<g id="tandwielen">
<path id="Path 304" d="M48.27 280.186L47.64 280.566C47.4389 280.687 47.2042 280.741 46.9703 280.719C46.7363 280.698 46.5155 280.602 46.34 280.446C45.8892 280.035 45.3965 279.673 44.87 279.366C44.668 279.244 44.5104 279.061 44.4204 278.843C44.3304 278.625 44.3127 278.384 44.37 278.156L44.55 277.436C44.6198 277.152 44.575 276.852 44.4252 276.601C44.2755 276.351 44.0329 276.169 43.75 276.096L42.53 275.796C42.2476 275.726 41.9491 275.771 41.6999 275.921C41.4506 276.071 41.2709 276.314 41.2 276.596V276.596L41.02 277.326C40.9617 277.552 40.8337 277.753 40.6542 277.902C40.4747 278.051 40.2528 278.14 40.02 278.156C39.4124 278.177 38.8088 278.264 38.22 278.416C37.9928 278.471 37.754 278.452 37.5382 278.362C37.3225 278.272 37.1409 278.116 37.02 277.916L36.64 277.286C36.566 277.161 36.468 277.053 36.3517 276.967C36.2354 276.881 36.1031 276.819 35.9626 276.784C35.822 276.75 35.676 276.744 35.533 276.766C35.3901 276.789 35.2531 276.84 35.13 276.916L34.06 277.556C33.9311 277.629 33.8182 277.728 33.728 277.845C33.6378 277.963 33.5722 278.098 33.5349 278.241C33.4976 278.385 33.4894 278.534 33.5109 278.681C33.5324 278.828 33.5831 278.969 33.66 279.096L34.01 279.686C34.1325 279.889 34.186 280.126 34.1626 280.362C34.1392 280.598 34.04 280.821 33.88 280.996C33.4534 281.45 33.0779 281.95 32.76 282.486C32.6371 282.686 32.4533 282.841 32.2355 282.93C32.0178 283.018 31.7776 283.034 31.55 282.976L30.91 282.816C30.7695 282.78 30.6232 282.772 30.4797 282.793C30.3361 282.814 30.1981 282.863 30.0736 282.937C29.949 283.011 29.8404 283.11 29.754 283.226C29.6676 283.343 29.605 283.475 29.57 283.616L29.27 284.836C29.2031 285.118 29.2494 285.415 29.3989 285.664C29.5484 285.912 29.7893 286.093 30.07 286.166L30.65 286.306C30.8774 286.361 31.0809 286.488 31.2303 286.669C31.3798 286.849 31.4674 287.072 31.48 287.306C31.4997 287.947 31.5903 288.584 31.75 289.206C31.8048 289.435 31.7848 289.677 31.6931 289.894C31.6014 290.112 31.4427 290.295 31.24 290.416L30.76 290.706C30.6358 290.78 30.5274 290.878 30.4411 290.994C30.3548 291.11 30.2922 291.242 30.2569 291.382C30.2216 291.522 30.2143 291.668 30.2354 291.811C30.2565 291.954 30.3057 292.092 30.38 292.216L31.03 293.296C31.103 293.42 31.2001 293.528 31.3155 293.614C31.4309 293.7 31.5624 293.762 31.7021 293.797C31.8419 293.831 31.9871 293.837 32.1293 293.815C32.2714 293.792 32.4077 293.742 32.53 293.666L32.98 293.396C33.1842 293.275 33.4222 293.223 33.6583 293.248C33.8944 293.273 34.116 293.374 34.29 293.536C34.7727 293.985 35.3024 294.38 35.87 294.716C36.0738 294.836 36.2335 295.018 36.3253 295.236C36.4172 295.454 36.4364 295.696 36.38 295.926L36.25 296.426C36.1804 296.708 36.2255 297.007 36.3754 297.256C36.5254 297.505 36.7679 297.685 37.05 297.756V297.756L38.27 298.056C38.4105 298.092 38.5568 298.099 38.7003 298.079C38.8439 298.058 38.9819 298.009 39.1064 297.935C39.231 297.86 39.3396 297.762 39.426 297.645C39.5124 297.529 39.575 297.396 39.61 297.256L39.73 296.756C39.7869 296.529 39.9145 296.327 40.0943 296.177C40.2741 296.028 40.4968 295.94 40.73 295.926C41.389 295.897 42.0428 295.796 42.68 295.626C42.9115 295.565 43.1564 295.581 43.378 295.672C43.5997 295.762 43.7863 295.921 43.91 296.126L44.17 296.576C44.3213 296.825 44.5653 297.004 44.8484 297.073C45.1316 297.143 45.4307 297.097 45.68 296.946V296.946L46.76 296.306C46.8844 296.232 46.9928 296.134 47.0789 296.017C47.165 295.901 47.2271 295.769 47.2615 295.628C47.296 295.488 47.3021 295.342 47.2795 295.199C47.2569 295.056 47.2061 294.919 47.13 294.796L46.84 294.306C46.7216 294.104 46.6695 293.87 46.691 293.636C46.7125 293.403 46.8066 293.183 46.96 293.006C47.3962 292.532 47.7754 292.008 48.09 291.446C48.2106 291.24 48.3948 291.079 48.6148 290.987C48.8349 290.895 49.0788 290.877 49.31 290.936L49.89 291.076C50.0299 291.112 50.1755 291.119 50.3184 291.098C50.4613 291.077 50.5986 291.028 50.7223 290.954C50.846 290.879 50.9538 290.781 51.0392 290.665C51.1246 290.548 51.1861 290.416 51.22 290.276L51.52 289.056C51.5558 288.916 51.5635 288.77 51.5426 288.627C51.5217 288.484 51.4726 288.347 51.3981 288.223C51.3237 288.1 51.2254 287.992 51.109 287.907C50.9926 287.821 50.8604 287.76 50.72 287.726V287.726L50.08 287.566C49.8523 287.509 49.6483 287.382 49.4974 287.202C49.3465 287.023 49.2564 286.8 49.24 286.566C49.2086 285.944 49.1113 285.327 48.95 284.726C48.8903 284.496 48.9068 284.252 48.997 284.033C49.0871 283.813 49.246 283.628 49.45 283.506L50.04 283.156C50.2888 283.004 50.4681 282.761 50.5392 282.479C50.6103 282.196 50.5675 281.897 50.42 281.646L49.77 280.566C49.6959 280.442 49.598 280.333 49.482 280.247C49.366 280.16 49.2341 280.098 49.0938 280.063C48.9536 280.027 48.8077 280.02 48.6646 280.041C48.5216 280.062 48.3841 280.111 48.26 280.186H48.27ZM43.13 291.496C42.2273 292.035 41.1851 292.295 40.135 292.242C39.0848 292.189 38.0738 291.827 37.2297 291.2C36.3855 290.573 35.7461 289.71 35.3921 288.72C35.0382 287.729 34.9855 286.657 35.2409 285.637C35.4962 284.617 36.0481 283.695 36.8268 282.989C37.6055 282.282 38.5762 281.822 39.6161 281.667C40.6561 281.512 41.7187 281.668 42.6698 282.116C43.6209 282.565 44.4179 283.285 44.96 284.186C45.3209 284.786 45.5599 285.451 45.6633 286.143C45.7667 286.836 45.7324 287.541 45.5624 288.221C45.3924 288.9 45.09 289.539 44.6726 290.101C44.2552 290.663 43.731 291.137 43.13 291.496Z" fill="white"/>
<path id="Path 305" d="M57.35 272.466H56.95C56.8227 272.465 56.6989 272.424 56.5964 272.349C56.494 272.273 56.4182 272.167 56.38 272.046C56.2827 271.731 56.1555 271.426 56 271.136C55.9372 271.024 55.9129 270.895 55.931 270.769C55.9491 270.642 56.0085 270.525 56.1 270.436L56.38 270.146C56.4899 270.034 56.5515 269.883 56.5515 269.726C56.5515 269.569 56.4899 269.418 56.38 269.306L55.9 268.826C55.7878 268.716 55.6371 268.654 55.48 268.654C55.3229 268.654 55.1721 268.716 55.06 268.826L54.77 269.106C54.6807 269.197 54.5636 269.257 54.437 269.275C54.3104 269.293 54.1814 269.269 54.07 269.206C53.7795 269.05 53.4748 268.923 53.16 268.826C53.0386 268.788 52.9325 268.712 52.857 268.609C52.7815 268.507 52.7405 268.383 52.74 268.256V267.856C52.74 267.697 52.6768 267.544 52.5643 267.431C52.4517 267.319 52.2991 267.256 52.14 267.256H51.46C51.3009 267.256 51.1482 267.319 51.0357 267.431C50.9232 267.544 50.86 267.697 50.86 267.856V267.856V268.226C50.861 268.356 50.8196 268.483 50.742 268.588C50.6644 268.692 50.5549 268.769 50.43 268.806C50.1043 268.895 49.7892 269.019 49.49 269.176C49.3782 269.237 49.2495 269.26 49.1234 269.242C48.9972 269.224 48.8802 269.166 48.79 269.076L48.54 268.816C48.4278 268.706 48.2771 268.644 48.12 268.644C47.9629 268.644 47.8121 268.706 47.7 268.816L47.22 269.296C47.1628 269.351 47.1174 269.417 47.0863 269.49C47.0552 269.563 47.0392 269.641 47.0392 269.721C47.0392 269.8 47.0552 269.879 47.0863 269.952C47.1174 270.025 47.1628 270.091 47.22 270.146L47.44 270.366C47.5331 270.458 47.5934 270.579 47.6114 270.709C47.6295 270.839 47.6044 270.971 47.54 271.086C47.3729 271.388 47.2356 271.707 47.13 272.036C47.0947 272.159 47.0196 272.267 46.9165 272.343C46.8134 272.419 46.688 272.458 46.56 272.456H46.26C46.1009 272.456 45.9483 272.519 45.8357 272.631C45.7232 272.744 45.66 272.897 45.66 273.056V273.056V273.736C45.6586 273.815 45.6732 273.894 45.7029 273.967C45.7326 274.04 45.7767 274.107 45.8327 274.163C45.8887 274.219 45.9554 274.263 46.0288 274.293C46.1022 274.322 46.1808 274.337 46.26 274.336H46.54C46.6685 274.337 46.7933 274.379 46.8959 274.457C46.9985 274.534 47.0736 274.642 47.11 274.766C47.2051 275.113 47.3393 275.449 47.51 275.766C47.5681 275.878 47.5897 276.006 47.5718 276.132C47.5538 276.257 47.4973 276.374 47.41 276.466L47.21 276.666C47.0994 276.78 47.0376 276.932 47.0376 277.091C47.0376 277.249 47.0994 277.402 47.21 277.516L47.69 277.996C47.8038 278.106 47.9563 278.168 48.115 278.168C48.2737 278.168 48.4262 278.106 48.54 277.996L48.74 277.796C48.8293 277.704 48.9464 277.645 49.073 277.627C49.1996 277.609 49.3286 277.633 49.44 277.696C49.7572 277.866 50.0926 278.001 50.44 278.096C50.5622 278.133 50.6693 278.208 50.745 278.311C50.8207 278.414 50.8611 278.538 50.86 278.666V278.946C50.86 279.105 50.9232 279.257 51.0357 279.37C51.1482 279.483 51.3009 279.546 51.46 279.546H52.14C52.2991 279.546 52.4517 279.483 52.5643 279.37C52.6768 279.257 52.74 279.105 52.74 278.946V278.946V278.646C52.7384 278.517 52.7783 278.391 52.854 278.286C52.9296 278.182 53.0369 278.104 53.16 278.066C53.51 277.974 53.8463 277.836 54.16 277.656C54.2741 277.597 54.4037 277.575 54.5309 277.593C54.6581 277.611 54.7766 277.668 54.87 277.756L55.1 277.986C55.2138 278.096 55.3663 278.158 55.525 278.158C55.6837 278.158 55.8361 278.096 55.95 277.986L56.43 277.506C56.5399 277.394 56.6015 277.243 56.6015 277.086C56.6015 276.929 56.5399 276.778 56.43 276.666L56.17 276.406C56.0799 276.316 56.0215 276.199 56.0035 276.072C55.9855 275.946 56.0088 275.818 56.07 275.706C56.2241 275.409 56.3481 275.097 56.44 274.776C56.4769 274.651 56.5534 274.541 56.6581 274.464C56.7627 274.386 56.8897 274.345 57.02 274.346H57.39C57.5491 274.346 57.7017 274.283 57.8143 274.17C57.9268 274.057 57.99 273.905 57.99 273.746V273.746V273.096C57.985 272.938 57.9202 272.788 57.8087 272.677C57.6973 272.566 57.5475 272.501 57.39 272.496L57.35 272.466ZM51.85 276.326C51.277 276.342 50.7122 276.187 50.2275 275.881C49.7428 275.575 49.36 275.131 49.1279 274.607C48.8957 274.083 48.8247 273.502 48.9238 272.937C49.0229 272.373 49.2877 271.85 49.6845 271.436C50.0813 271.023 50.5921 270.736 51.1521 270.614C51.712 270.491 52.2958 270.538 52.8292 270.748C53.3626 270.958 53.8214 271.322 54.1474 271.793C54.4734 272.265 54.6518 272.823 54.66 273.396V273.396C54.66 274.162 54.3555 274.897 53.8135 275.439C53.2715 275.981 52.5365 276.286 51.77 276.286" fill="white"/>
</g>
<g id="mindset">
<path id="Path 306" d="M34.98 347.856L39.49 344.136L45.78 342.706L48.78 344.136L51.98 347.856L52.98 352.426L49.87 360.846V365.846L39.48 367.846L34.97 363.976L32.22 358.796L34.98 347.856Z" fill="white"/>
<path id="Path 308" d="M49.47 349.506H49.18C49.0887 349.506 48.9997 349.477 48.926 349.423C48.8522 349.369 48.7976 349.293 48.77 349.206C48.7018 348.976 48.6078 348.755 48.49 348.546C48.4455 348.462 48.4293 348.366 48.4437 348.272C48.4581 348.179 48.5024 348.092 48.57 348.026L48.77 347.826C48.8518 347.743 48.8977 347.632 48.8977 347.516C48.8977 347.4 48.8518 347.288 48.77 347.206V347.206L48.42 346.856C48.3369 346.779 48.228 346.737 48.115 346.737C48.002 346.737 47.8931 346.779 47.81 346.856L47.6 347.066C47.536 347.134 47.4511 347.179 47.3587 347.193C47.2664 347.208 47.1718 347.191 47.09 347.146C46.8812 347.028 46.6598 346.934 46.43 346.866C46.3437 346.837 46.2686 346.782 46.2149 346.708C46.1611 346.635 46.1315 346.547 46.13 346.456V346.156C46.13 346.042 46.0847 345.932 46.0041 345.852C45.9234 345.771 45.814 345.726 45.7 345.726H45.2C45.086 345.726 44.9766 345.771 44.8959 345.852C44.8153 345.932 44.77 346.042 44.77 346.156V346.426C44.7716 346.52 44.742 346.612 44.686 346.688C44.63 346.764 44.5506 346.819 44.46 346.846C44.225 346.913 43.9972 347.004 43.78 347.116C43.6984 347.159 43.6052 347.176 43.5137 347.163C43.4222 347.151 43.3369 347.109 43.27 347.046L43.08 346.856C43.04 346.816 42.9925 346.784 42.9402 346.762C42.8878 346.74 42.8317 346.729 42.775 346.729C42.7183 346.729 42.6622 346.74 42.6098 346.762C42.5575 346.784 42.51 346.816 42.47 346.856L42.12 347.206C42.0798 347.246 42.0479 347.293 42.0261 347.346C42.0043 347.398 41.9931 347.454 41.9931 347.511C41.9931 347.567 42.0043 347.624 42.0261 347.676C42.0479 347.728 42.0798 347.776 42.12 347.816L42.29 347.986C42.3582 348.05 42.4023 348.136 42.415 348.228C42.4278 348.321 42.4083 348.416 42.36 348.496C42.2415 348.721 42.1411 348.955 42.06 349.196C42.0356 349.286 41.9822 349.365 41.908 349.421C41.8338 349.477 41.743 349.507 41.65 349.506H41.42C41.306 349.506 41.1966 349.551 41.1159 349.632C41.0353 349.712 40.99 349.822 40.99 349.936V350.436C40.99 350.55 41.0353 350.659 41.1159 350.74C41.1966 350.82 41.306 350.866 41.42 350.866H41.62C41.7143 350.864 41.8065 350.894 41.8824 350.95C41.9583 351.006 42.0137 351.085 42.04 351.176C42.1114 351.425 42.2086 351.666 42.33 351.896C42.3766 351.976 42.395 352.07 42.3823 352.163C42.3696 352.255 42.3266 352.341 42.26 352.406L42.12 352.546C42.0382 352.628 41.9922 352.74 41.9922 352.856C41.9922 352.972 42.0382 353.083 42.12 353.166V353.166L42.46 353.506C42.5424 353.588 42.6539 353.633 42.77 353.633C42.8861 353.633 42.9976 353.588 43.08 353.506V353.506L43.22 353.366C43.2852 353.299 43.3707 353.256 43.463 353.243C43.5554 353.231 43.6493 353.249 43.73 353.296C43.9593 353.417 44.2006 353.514 44.45 353.586C44.5406 353.612 44.62 353.667 44.676 353.743C44.732 353.819 44.7616 353.911 44.76 354.006V354.206C44.76 354.32 44.8053 354.429 44.8859 354.51C44.9666 354.59 45.076 354.636 45.19 354.636H45.69C45.804 354.636 45.9134 354.59 45.9941 354.51C46.0747 354.429 46.12 354.32 46.12 354.206V353.976C46.119 353.883 46.1488 353.792 46.205 353.718C46.2611 353.644 46.3402 353.59 46.43 353.566C46.671 353.485 46.9051 353.384 47.13 353.266C47.2102 353.217 47.3046 353.198 47.3974 353.211C47.4901 353.223 47.5758 353.268 47.64 353.336L47.81 353.506C47.85 353.546 47.8975 353.578 47.9498 353.6C48.0022 353.621 48.0583 353.633 48.115 353.633C48.1717 353.633 48.2278 353.621 48.2802 353.6C48.3325 353.578 48.38 353.546 48.42 353.506L48.77 353.156C48.8102 353.116 48.8421 353.068 48.8639 353.016C48.8857 352.964 48.8969 352.907 48.8969 352.851C48.8969 352.794 48.8857 352.738 48.8639 352.686C48.8421 352.633 48.8102 352.586 48.77 352.546V352.546L48.58 352.356C48.5163 352.289 48.4752 352.204 48.4626 352.112C48.4501 352.02 48.4666 351.927 48.51 351.846C48.6222 351.629 48.7126 351.401 48.78 351.166C48.8063 351.075 48.8617 350.996 48.9376 350.94C49.0135 350.884 49.1057 350.854 49.2 350.856H49.47C49.584 350.856 49.6934 350.81 49.7741 350.73C49.8547 350.649 49.9 350.54 49.9 350.426V349.926C49.8975 349.812 49.8513 349.705 49.7712 349.624C49.6911 349.544 49.5832 349.498 49.47 349.496V349.506ZM45.47 352.276C45.0547 352.276 44.6486 352.153 44.3033 351.922C43.958 351.691 43.6888 351.363 43.5299 350.979C43.3709 350.596 43.3293 350.173 43.4104 349.766C43.4914 349.359 43.6914 348.984 43.9851 348.691C44.2788 348.397 44.653 348.197 45.0603 348.116C45.4677 348.035 45.8899 348.077 46.2736 348.236C46.6574 348.395 46.9853 348.664 47.2161 349.009C47.4468 349.354 47.57 349.76 47.57 350.176C47.57 350.733 47.3487 351.267 46.9549 351.661C46.5611 352.054 46.027 352.276 45.47 352.276Z" fill="#ECDA32"/>
<g id="Laag 15">
<path id="Path 307" d="M43.71 342.446C41.1346 342.451 38.6664 343.477 36.8463 345.299C35.0262 347.121 34.0026 349.59 34 352.166V353.586L31.66 358.276C31.5662 358.47 31.5524 358.693 31.6216 358.897C31.6908 359.101 31.8375 359.269 32.03 359.366C32.1428 359.418 32.2656 359.445 32.39 359.446H34V363.346C34 363.775 34.1707 364.187 34.4745 364.491C34.7783 364.795 35.1904 364.966 35.62 364.966C35.7097 364.976 35.8003 364.976 35.89 364.966L38.89 364.466V367.566C38.89 367.781 38.9753 367.987 39.1272 368.138C39.2791 368.29 39.4852 368.376 39.7 368.376H39.84L49.55 366.756C49.7389 366.725 49.9104 366.627 50.0334 366.48C50.1563 366.333 50.2225 366.147 50.22 365.956V360.956C50.2453 360.003 50.5985 359.088 51.22 358.366C52.3957 356.945 53.1424 355.218 53.3728 353.389C53.6032 351.559 53.3077 349.701 52.5209 348.033C51.7341 346.365 50.4885 344.956 48.93 343.97C47.3714 342.984 45.5642 342.462 43.72 342.466L43.71 342.446Z" stroke="white" stroke-width="2"/>
</g>
</g>
<g id="lampje">
<path id="Path 309" d="M108.17 256.216V257.216C108.17 257.596 108.033 257.963 107.786 258.251C107.538 258.539 107.195 258.728 106.82 258.786L106.58 259.696C106.514 259.934 106.372 260.145 106.175 260.295C105.978 260.445 105.738 260.526 105.49 260.526H103.04C102.793 260.526 102.552 260.445 102.355 260.295C102.158 260.145 102.016 259.934 101.95 259.696L101.71 258.786C101.333 258.728 100.989 258.537 100.741 258.247C100.493 257.957 100.358 257.587 100.36 257.206V256.206C100.36 255.941 100.465 255.686 100.653 255.499C100.84 255.311 101.095 255.206 101.36 255.206H107.24C107.505 255.206 107.76 255.311 107.947 255.499C108.135 255.686 108.24 255.941 108.24 256.206L108.17 256.216ZM112.66 242.746C112.667 244.929 111.82 247.029 110.3 248.596C109.191 249.747 108.468 251.215 108.23 252.796C108.176 253.122 108.007 253.419 107.754 253.634C107.502 253.848 107.181 253.965 106.85 253.966H101.66C101.329 253.967 101.009 253.85 100.758 253.635C100.506 253.42 100.34 253.123 100.29 252.796C100.04 251.209 99.3111 249.736 98.2 248.576C97.2423 247.582 96.5432 246.368 96.1642 245.041C95.7851 243.714 95.7377 242.314 96.0261 240.965C96.3145 239.615 96.9298 238.357 97.8181 237.3C98.7063 236.244 99.8404 235.422 101.121 234.906C102.401 234.391 103.788 234.197 105.16 234.343C106.533 234.489 107.849 234.969 108.992 235.742C110.135 236.516 111.071 237.557 111.718 238.777C112.364 239.996 112.702 241.356 112.7 242.736L112.66 242.746ZM105.19 237.646C105.19 237.381 105.085 237.126 104.897 236.939C104.71 236.751 104.455 236.646 104.19 236.646C102.579 236.651 101.036 237.293 99.8966 238.432C98.7575 239.571 98.1153 241.115 98.11 242.726C98.1325 242.975 98.2478 243.207 98.4329 243.375C98.6181 243.544 98.8597 243.637 99.11 243.636C99.3445 243.615 99.5644 243.513 99.7308 243.347C99.8973 243.18 99.9997 242.96 100.02 242.726C100.02 241.617 100.46 240.554 101.244 239.77C102.028 238.986 103.091 238.546 104.2 238.546C104.455 238.546 104.701 238.449 104.887 238.274C105.073 238.1 105.185 237.86 105.2 237.606L105.19 237.646Z" fill="white"/>
</g>
<g id="potlood icoon">
<path id="Path 310" d="M96.77 379.196H111.77C112.566 379.196 113.329 379.512 113.891 380.074C114.454 380.637 114.77 381.4 114.77 382.196V396.196C114.77 396.991 114.454 397.754 113.891 398.317C113.329 398.88 112.566 399.196 111.77 399.196H96.77C95.9744 399.196 95.2113 398.88 94.6487 398.317C94.0861 397.754 93.77 396.991 93.77 396.196V382.196C93.77 381.4 94.0861 380.637 94.6487 380.074C95.2113 379.512 95.9744 379.196 96.77 379.196Z" fill="white"/>
<path id="Path 313" d="M109.01 384.306C108.687 383.992 108.255 383.817 107.805 383.817C107.355 383.817 106.923 383.992 106.6 384.306L99.83 390.906C99.7841 390.95 99.7497 391.005 99.73 391.066L98.84 394.206C98.8242 394.269 98.8252 394.336 98.8427 394.399C98.8602 394.462 98.8937 394.519 98.94 394.566C98.9893 394.611 99.0486 394.643 99.1129 394.66C99.1773 394.678 99.2448 394.68 99.31 394.666L102.52 393.796C102.583 393.775 102.641 393.74 102.69 393.696L109.46 387.096C109.765 386.789 109.936 386.373 109.936 385.941C109.936 385.508 109.765 385.093 109.46 384.786L109.01 384.306ZM100.66 391.146L106.2 385.746L107.98 387.486L102.44 392.886L100.66 391.146ZM100.3 391.846L101.73 393.236L99.73 393.766L100.3 391.846ZM108.92 386.576L108.52 386.966L106.74 385.226L107.14 384.836C107.324 384.67 107.562 384.578 107.81 384.578C108.058 384.578 108.296 384.67 108.48 384.836L108.92 385.266C109.005 385.35 109.072 385.451 109.118 385.561C109.164 385.672 109.188 385.791 109.188 385.911C109.188 386.031 109.164 386.149 109.118 386.26C109.072 386.371 109.005 386.471 108.92 386.556V386.576Z" fill="#D3751F"/>
<path id="Path 314" d="M106.03 385.346L108.16 384.266L109.59 386.046L108.16 387.256L107.91 387.716L106.03 389.846L101.55 393.706L102.22 393.196L100.08 391.656L106.03 385.346Z" fill="#D3751F"/>
<g id="Laag 11">
<path id="Path 312" d="M114.07 390.936C113.929 390.936 113.795 390.992 113.695 391.091C113.596 391.19 113.54 391.325 113.54 391.466V391.466V396.236C113.537 396.662 113.367 397.07 113.066 397.371C112.764 397.673 112.356 397.843 111.93 397.846H96.86C96.6486 397.846 96.4392 397.804 96.2439 397.723C96.0486 397.642 95.8711 397.524 95.7216 397.374C95.5721 397.225 95.4535 397.047 95.3726 396.852C95.2917 396.657 95.25 396.447 95.25 396.236V382.236C95.25 382.024 95.2917 381.815 95.3726 381.62C95.4535 381.424 95.5721 381.247 95.7216 381.097C95.8711 380.948 96.0486 380.829 96.2439 380.748C96.4392 380.667 96.6486 380.626 96.86 380.626H101.66C101.789 380.608 101.908 380.544 101.994 380.446C102.079 380.347 102.127 380.221 102.127 380.091C102.127 379.96 102.079 379.834 101.994 379.736C101.908 379.637 101.789 379.573 101.66 379.556H96.86C96.5064 379.554 96.156 379.623 95.829 379.758C95.5021 379.893 95.205 380.091 94.9549 380.341C94.7049 380.591 94.5068 380.888 94.3721 381.215C94.2374 381.542 94.1687 381.892 94.17 382.246V396.246C94.1753 396.957 94.4607 397.637 94.9643 398.138C95.4679 398.64 96.1491 398.923 96.86 398.926H111.93C112.641 398.926 113.322 398.643 113.825 398.141C114.328 397.638 114.61 396.956 114.61 396.246V391.476C114.611 391.405 114.599 391.335 114.573 391.27C114.547 391.204 114.508 391.145 114.458 391.094C114.409 391.044 114.35 391.004 114.285 390.977C114.22 390.95 114.15 390.936 114.08 390.936V390.936H114.07Z" stroke="white" stroke-width="0.5"/>
</g>
<g id="Laag 12">
<path id="Path 311" d="M114.07 390.936C113.929 390.936 113.795 390.992 113.695 391.091C113.596 391.19 113.54 391.325 113.54 391.466V391.466V396.236C113.537 396.662 113.367 397.07 113.066 397.371C112.764 397.673 112.356 397.843 111.93 397.846H96.86C96.6486 397.846 96.4392 397.804 96.2439 397.723C96.0486 397.642 95.8711 397.524 95.7216 397.374C95.5721 397.225 95.4535 397.047 95.3726 396.852C95.2917 396.657 95.25 396.447 95.25 396.236V382.236C95.25 382.024 95.2917 381.815 95.3726 381.62C95.4535 381.424 95.5721 381.247 95.7216 381.097C95.8711 380.948 96.0486 380.829 96.2439 380.748C96.4392 380.667 96.6486 380.626 96.86 380.626H101.66C101.789 380.608 101.908 380.544 101.994 380.446C102.079 380.347 102.127 380.221 102.127 380.091C102.127 379.96 102.079 379.834 101.994 379.736C101.908 379.637 101.789 379.573 101.66 379.556H96.86C96.5064 379.554 96.156 379.623 95.829 379.758C95.5021 379.893 95.205 380.091 94.9549 380.341C94.7049 380.591 94.5068 380.888 94.3721 381.215C94.2374 381.542 94.1687 381.892 94.17 382.246V396.246C94.1753 396.957 94.4607 397.637 94.9643 398.138C95.4679 398.64 96.1491 398.923 96.86 398.926H111.93C112.641 398.926 113.322 398.643 113.825 398.141C114.328 397.638 114.61 396.956 114.61 396.246V391.476C114.611 391.405 114.599 391.335 114.573 391.27C114.547 391.204 114.508 391.145 114.458 391.094C114.409 391.044 114.35 391.004 114.285 390.977C114.22 390.95 114.15 390.936 114.08 390.936V390.936H114.07Z" fill="white"/>
</g>
</g>
<g id="pijl">
<path id="Path 315" d="M127.79 358.966C120.644 363.076 112.543 365.235 104.299 365.226C96.0546 365.216 87.9582 363.038 80.822 358.91C73.6857 354.783 67.7606 348.851 63.6415 341.71C59.5223 334.569 57.3539 326.47 57.3539 318.226C57.3539 309.982 59.5223 301.883 63.6415 294.742C67.7606 287.601 73.6857 281.669 80.822 277.541C87.9582 273.413 96.0546 271.235 104.299 271.226C112.543 271.216 120.644 273.375 127.79 277.486" stroke="#222221" stroke-width="2" stroke-miterlimit="10"/>
<path id="Path 317" d="M59.19 304.356L65.7 298.616L57.54 295.826L59.19 304.356ZM58.54 306.256L56.24 294.336L67.64 298.226L58.54 306.256Z" fill="#010200"/>
<g id="Laag 8">
<path id="Path 316" d="M56.9 295.096L66.68 298.436L58.87 305.326L56.9 295.096Z" fill="#010200"/>
</g>
</g>
<g id="verbindingstukje 1">
<path id="Line 1_2" d="M104.2 59.12L103.9 108.89" stroke="#ABAFBA" stroke-width="5"/>
</g>
<g id="verbindingstukje 3">
<path id="Line 1_3" d="M105.3 422L105 478" stroke="#ABAFBA" stroke-width="5"/>
</g>
<g id="verbindingstukje 4">
<path id="Line 1_4" d="M104.3 541L104 597" stroke="#ABAFBA" stroke-width="5"/>
</g>
<g id="cirkel 1">
<path id="Path 318" d="M104.2 0C111.815 0 119.258 2.25798 125.589 6.48842C131.921 10.7189 136.855 16.7317 139.769 23.7667C142.683 30.8016 143.446 38.5427 141.96 46.011C140.475 53.4792 136.808 60.3393 131.424 65.7236C126.039 71.1079 119.179 74.7747 111.711 76.2602C104.243 77.7458 96.5016 76.9833 89.4667 74.0694C82.4317 71.1554 76.4189 66.2207 72.1884 59.8895C67.958 53.5582 65.7 46.1146 65.7 38.5C65.7 28.2892 69.7562 18.4965 76.9764 11.2764C84.1965 4.05624 93.9892 0 104.2 0" fill="white"/>
<path id="Intro" d="M84.3945 43H82.1445V25.9375H84.3945V43ZM90.2305 30.3203L90.3008 31.9141C91.2695 30.6953 92.5352 30.0859 94.0977 30.0859C96.7773 30.0859 98.1289 31.5977 98.1523 34.6211V43H95.9844V34.6094C95.9766 33.6953 95.7656 33.0195 95.3516 32.582C94.9453 32.1445 94.3086 31.9258 93.4414 31.9258C92.7383 31.9258 92.1211 32.1133 91.5898 32.4883C91.0586 32.8633 90.6445 33.3555 90.3477 33.9648V43H88.1797V30.3203H90.2305ZM104.363 27.25V30.3203H106.73V31.9961H104.363V39.8594C104.363 40.3672 104.469 40.75 104.68 41.0078C104.891 41.2578 105.25 41.3828 105.758 41.3828C106.008 41.3828 106.352 41.3359 106.789 41.2422V43C106.219 43.1562 105.664 43.2344 105.125 43.2344C104.156 43.2344 103.426 42.9414 102.934 42.3555C102.441 41.7695 102.195 40.9375 102.195 39.8594V31.9961H99.8867V30.3203H102.195V27.25H104.363ZM115.402 32.2656C115.074 32.2109 114.719 32.1836 114.336 32.1836C112.914 32.1836 111.949 32.7891 111.441 34V43H109.273V30.3203H111.383L111.418 31.7852C112.129 30.6523 113.137 30.0859 114.441 30.0859C114.863 30.0859 115.184 30.1406 115.402 30.25V32.2656ZM116.598 36.543C116.598 35.3008 116.84 34.1836 117.324 33.1914C117.816 32.1992 118.496 31.4336 119.363 30.8945C120.238 30.3555 121.234 30.0859 122.352 30.0859C124.078 30.0859 125.473 30.6836 126.535 31.8789C127.605 33.0742 128.141 34.6641 128.141 36.6484V36.8008C128.141 38.0352 127.902 39.1445 127.426 40.1289C126.957 41.1055 126.281 41.8672 125.398 42.4141C124.523 42.9609 123.516 43.2344 122.375 43.2344C120.656 43.2344 119.262 42.6367 118.191 41.4414C117.129 40.2461 116.598 38.6641 116.598 36.6953V36.543ZM118.777 36.8008C118.777 38.207 119.102 39.3359 119.75 40.1875C120.406 41.0391 121.281 41.4648 122.375 41.4648C123.477 41.4648 124.352 41.0352 125 40.1758C125.648 39.3086 125.973 38.0977 125.973 36.543C125.973 35.1523 125.641 34.0273 124.977 33.168C124.32 32.3008 123.445 31.8672 122.352 31.8672C121.281 31.8672 120.418 32.293 119.762 33.1445C119.105 33.9961 118.777 35.2148 118.777 36.8008Z" fill="#3F51B5"/>
</g>
<g id="cirkel 3">
<path id="Path 320" d="M103.5 109C111.115 109 118.558 111.258 124.889 115.488C131.221 119.719 136.155 125.732 139.069 132.767C141.983 139.802 142.746 147.543 141.26 155.011C139.775 162.479 136.108 169.339 130.724 174.724C125.339 180.108 118.479 183.775 111.011 185.26C103.543 186.746 95.8016 185.983 88.7667 183.069C81.7317 180.155 75.7189 175.221 71.4884 168.889C67.258 162.558 65 155.115 65 147.5C65 137.289 69.0562 127.497 76.2764 120.276C83.4965 113.056 93.2892 109 103.5 109Z" fill="white"/>
<path id="1.1" d="M95.7423 151.4H93.5627V136.951L89.1916 138.556V136.587L95.4025 134.255H95.7423V151.4ZM102.363 150.263C102.363 149.888 102.473 149.576 102.692 149.326C102.918 149.076 103.254 148.951 103.699 148.951C104.145 148.951 104.481 149.076 104.707 149.326C104.942 149.576 105.059 149.888 105.059 150.263C105.059 150.623 104.942 150.923 104.707 151.166C104.481 151.408 104.145 151.529 103.699 151.529C103.254 151.529 102.918 151.408 102.692 151.166C102.473 150.923 102.363 150.623 102.363 150.263ZM115.547 151.4H113.367V136.951L108.996 138.556V136.587L115.207 134.255H115.547V151.4Z" fill="#3F51B5"/>
</g>
<g id="cirkel 4">
<path id="Path 321" d="M104.66 465.6C112.275 465.6 119.718 467.858 126.049 472.088C132.381 476.319 137.315 482.332 140.229 489.367C143.143 496.402 143.906 504.143 142.42 511.611C140.935 519.079 137.268 525.939 131.884 531.324C126.499 536.708 119.639 540.375 112.171 541.86C104.703 543.346 96.9617 542.583 89.9267 539.669C82.8917 536.755 76.8789 531.821 72.6484 525.489C68.418 519.158 66.16 511.715 66.16 504.1C66.16 493.889 70.2162 484.097 77.4364 476.876C84.6565 469.656 94.4492 465.6 104.66 465.6Z" fill="white"/>
<path id="1.3" d="M96.9023 508H94.7227V493.551L90.3516 495.156V493.188L96.5625 490.855H96.9023V508ZM103.523 506.863C103.523 506.488 103.633 506.176 103.852 505.926C104.078 505.676 104.414 505.551 104.859 505.551C105.305 505.551 105.641 505.676 105.867 505.926C106.102 506.176 106.219 506.488 106.219 506.863C106.219 507.223 106.102 507.523 105.867 507.766C105.641 508.008 105.305 508.129 104.859 508.129C104.414 508.129 104.078 508.008 103.852 507.766C103.633 507.523 103.523 507.223 103.523 506.863ZM112.734 498.414H114.363C115.387 498.398 116.191 498.129 116.777 497.605C117.363 497.082 117.656 496.375 117.656 495.484C117.656 493.484 116.66 492.484 114.668 492.484C113.73 492.484 112.98 492.754 112.418 493.293C111.863 493.824 111.586 494.531 111.586 495.414H109.418C109.418 494.062 109.91 492.941 110.895 492.051C111.887 491.152 113.145 490.703 114.668 490.703C116.277 490.703 117.539 491.129 118.453 491.98C119.367 492.832 119.824 494.016 119.824 495.531C119.824 496.273 119.582 496.992 119.098 497.688C118.621 498.383 117.969 498.902 117.141 499.246C118.078 499.543 118.801 500.035 119.309 500.723C119.824 501.41 120.082 502.25 120.082 503.242C120.082 504.773 119.582 505.988 118.582 506.887C117.582 507.785 116.281 508.234 114.68 508.234C113.078 508.234 111.773 507.801 110.766 506.934C109.766 506.066 109.266 504.922 109.266 503.5H111.445C111.445 504.398 111.738 505.117 112.324 505.656C112.91 506.195 113.695 506.465 114.68 506.465C115.727 506.465 116.527 506.191 117.082 505.645C117.637 505.098 117.914 504.312 117.914 503.289C117.914 502.297 117.609 501.535 117 501.004C116.391 500.473 115.512 500.199 114.363 500.184H112.734V498.414Z" fill="#3F51B5"/>
</g>
<g id="cirkel 6">
<path id="Path 321_2" d="M103.5 583C111.115 583 118.558 585.258 124.889 589.488C131.221 593.719 136.155 599.732 139.069 606.767C141.983 613.802 142.746 621.543 141.26 629.011C139.775 636.479 136.108 643.339 130.724 648.724C125.339 654.108 118.479 657.775 111.011 659.26C103.543 660.746 95.8016 659.983 88.7667 657.069C81.7317 654.155 75.7189 649.221 71.4884 642.889C67.258 636.558 65 629.115 65 621.5C65 611.289 69.0562 601.497 76.2764 594.276C83.4965 587.056 93.2892 583 103.5 583Z" fill="white"/>
</g>
<path id="lock (1)" d="M112.542 614.335H111.692V610.51C111.673 609.505 111.457 608.514 111.055 607.593C110.654 606.672 110.075 605.839 109.351 605.141C108.628 604.444 107.774 603.896 106.839 603.529C105.903 603.162 104.905 602.983 103.9 603.001C102.877 602.983 101.86 603.166 100.907 603.54C99.9548 603.914 99.0853 604.473 98.3486 605.183C97.6119 605.893 97.0223 606.742 96.6136 607.68C96.2049 608.618 95.9851 609.628 95.9667 610.651V614.476H94.975C94.186 614.476 93.4293 614.79 92.8714 615.348C92.3134 615.906 92 616.662 92 617.451V630.626C92 631.415 92.3134 632.172 92.8714 632.73C93.4293 633.288 94.186 633.601 94.975 633.601H112.542C112.932 633.601 113.319 633.524 113.68 633.375C114.041 633.225 114.369 633.006 114.645 632.73C114.922 632.454 115.141 632.126 115.29 631.765C115.44 631.404 115.517 631.017 115.517 630.626V617.31C115.517 616.521 115.203 615.764 114.645 615.206C114.087 614.648 113.331 614.335 112.542 614.335ZM98.6583 610.651C98.6581 609.97 98.7945 609.295 99.0596 608.666C99.3248 608.038 99.7131 607.47 100.202 606.994C100.691 606.519 101.27 606.146 101.905 605.898C102.54 605.65 103.218 605.532 103.9 605.551C104.582 605.532 105.26 605.65 105.895 605.898C106.53 606.146 107.109 606.519 107.598 606.994C108.087 607.47 108.475 608.038 108.74 608.666C109.005 609.295 109.142 609.97 109.142 610.651V614.476H98.6583V610.651Z" fill="#244768"/>
</g>
<defs>
<clipPath id="clip0_2_60">
<rect width="156.41" height="662.6" fill="white"/>
</clipPath>
</defs>
</svg>
